<svg id="Capa_1" enable-background="new 0 0 512 512" height="512" viewBox="0 0 512 512" width="512" xmlns="http://www.w3.org/2000/svg"><g><path d="m123.418 64h-123.41v-64h104.65z" fill="#4e588b"/><path d="m511.992 128-36.57 256h-285.59l-36.58-123v-133z" fill="#ff3d58"/><path d="m511.992 128-36.57 256h-142.8v-256z" fill="#d20173"/><path d="m222.892 180.75h219.46v30h-219.46z" fill="#ff7d3e"/><path d="m231.492 241h202.26v30h-202.26z" fill="#ff7d3e"/><path d="m240.102 301.25h185.04v30h-185.04z" fill="#ff7d3e"/><g fill="#ff3d58"><path d="m332.622 301.25h92.52v30h-92.52z"/><path d="m332.622 241h101.13v30h-101.13z"/><path d="m332.622 180.75h109.73v30h-109.73z"/></g><path d="m475.462 421.75v30h-267.12c-22.31 0-41.51-16.66-44.67-38.74l-59.01-413.01h30.3l18.29 128 36.58 256 3.54 24.76c1.06 7.41 7.49 12.99 14.97 12.99z" fill="#d6d6ea"/><path d="m332.622 421.75h142.84v30h-142.84z" fill="#a9aaca"/><circle cx="252.622" cy="480" fill="#4e588b" r="32"/><circle cx="412.622" cy="480" fill="#293e65" r="32"/><path d="m429.127 65.07v27.319l-96.504 88.361-96.503-88.361v-27.319h32.161v-65.07h128.675v65.07z" fill="#bde953"/><path d="m429.127 65.07v27.319l-96.504 88.361v-180.75h64.333v65.07z" fill="#00cd72"/></g></svg>